<?xml version="1.0" encoding="UTF-8"?>
<svg id="Layer_2" data-name="Layer 2" xmlns="http://www.w3.org/2000/svg" viewBox="0 0 85.04 85.04">
  <defs>
    <style>
      .cls-1 {
        fill: #fff;
      }

      .cls-2 {
        fill: #e4007f;
      }
    </style>
  </defs>
  <g id="_レイヤー_1" data-name="レイヤー 1">
    <g>
      <circle class="cls-1" cx="42.52" cy="42.52" r="42.52"/>
      <path class="cls-2" d="M60.84,65.38c-1.37-4.58-1.61-9.4-3.11-13.55-1.35-3.73-3.31-6.95-4.9-10.34-.66-1.4-1.57-3.65-2.75-5.96,.27,2.16,.64,4.11,.82,5.42,.51,3.71,.62,7.48,1.53,11.34,1.01,4.3,3.43,8.47,4.78,13.06,.93,3.18,1,6.68,1.83,9.62,.59,2.08,1.48,3.95,2.09,5.8,1.5-.73,2.94-1.55,4.33-2.45-.26-1.26-.52-2.56-.92-3.87-.9-2.92-2.76-5.89-3.71-9.06ZM42.52,0C19.04,0,0,19.04,0,42.52c0,21.08,15.35,38.57,35.48,41.93-2.23-2.56-4.47-5.31-5.51-8.97-1.21,1.48-4.06,2.48-5.29,.99-1.16-2.66,1.3-3.39,1.84-6.27,.72-3.87-2.86-5.77,.01-8.98,1.93-2.16,5.26-.39,7.86-1.75,.83-3.45-2.43-6.03-4.14-8.68-1.19-1.84-3.09-5.34-4.69-7.66-2.11-3.05-5.89-7.32-4.87-9.83,2.77-6.84,9.39,6,10.53,7.46,1.78,2.28,3.3,3.88,4.73,5.99,1.46,2.16,3.09,4.38,5.34,5.9,1.16-.01,1.84-.63,1.84-.63,.71-1.63,.77-5.09,.78-7.19,.01-2.73,.09-5.84-.05-8.65-.18-3.54-2.02-8.92,1.06-9.99,1.32-.46,2.34-.06,3.1,.94,.33-.61,.89-1.05,1.76-1.27,3.16-.78,4.55,4.73,6.33,7.8,1.42,2.43,3.18,4.99,4.68,7.28,1.15,1.75,3.09,4.62,4.57,5.6,0,0,.92,.14,1.89-.48,1.05-2.5,1.21-5.25,1.26-7.86,.05-2.55,.46-4.71,.7-7.6,.16-1.84-1.3-16.22,4.76-11.99,2.23,1.55,1.39,7.19,1.28,10.9-.08,2.81,.24,6.78,.25,8.97,.01,3.15-1.3,7.1,1.27,9.53,2.92-.28,4.75-3.57,7.55-2.82,.22,.06,.42,.13,.61,.2,.06-.95,.11-1.91,.11-2.88C85.04,19.04,66,0,42.52,0Z"/>
    </g>
  </g>
</svg>