<?xml version="1.0" encoding="UTF-8"?>
<svg id="Layer_2" data-name="Layer 2" xmlns="http://www.w3.org/2000/svg" viewBox="0 0 81.1 103.11">
  <defs>
    <style>
      .cls-1 {
        fill: #fff;
      }

      .cls-2 {
        fill: #e4007f;
      }

      .cls-3 {
        fill: #231916;
      }
    </style>
  </defs>
  <g id="_レイヤー_1" data-name="レイヤー 1">
    <g>
      <path class="cls-3" d="M22.15,100.16l-1.37-.57,.94-2.26c.21-.51,.22-.9-.16-1.05-.33-.14-.66,.02-.83,.43l-1.01,2.44-1.37-.57,.98-2.36c.16-.4,.2-.79-.19-.95-.21-.09-.62-.08-.84,.44l-1.01,2.44-1.37-.57,1.14-2.76c.2-.48,.36-.92,.51-1.31l1.19,.49-.14,.53h.02c.31-.16,.84-.33,1.47-.06,.55,.23,.84,.63,.86,1.08h.02c.27-.15,.83-.37,1.52-.09,.87,.36,1.12,1.16,.67,2.24l-1.02,2.46Z"/>
      <circle class="cls-1" cx="39.57" cy="50.71" r="37.49" transform="translate(-24.27 42.83) rotate(-45)"/>
      <path class="cls-2" d="M55.73,70.87c-1.21-4.04-1.42-8.29-2.75-11.95-1.19-3.29-2.92-6.13-4.32-9.12-.58-1.23-1.38-3.22-2.42-5.26,.24,1.9,.57,3.62,.73,4.78,.45,3.27,.55,6.59,1.35,10,.89,3.8,3.03,7.47,4.22,11.52,.82,2.8,.88,5.89,1.62,8.48,.52,1.84,1.3,3.48,1.84,5.11,1.32-.64,2.59-1.37,3.82-2.16-.23-1.11-.46-2.26-.81-3.41-.79-2.57-2.43-5.19-3.27-7.99ZM39.57,13.21C18.87,13.21,2.08,30,2.08,50.71c0,18.59,13.54,34.01,31.29,36.97-1.96-2.25-3.94-4.68-4.86-7.91-1.06,1.31-3.58,2.18-4.67,.87-1.03-2.35,1.14-2.99,1.62-5.53,.64-3.41-2.52-5.08,.01-7.91,1.7-1.9,4.64-.35,6.93-1.55,.73-3.04-2.14-5.32-3.65-7.66-1.05-1.62-2.72-4.71-4.13-6.75-1.86-2.69-5.19-6.45-4.29-8.67,2.45-6.03,8.28,5.29,9.28,6.58,1.57,2.01,2.91,3.42,4.17,5.28,1.29,1.9,2.73,3.86,4.71,5.21,1.02,0,1.63-.56,1.63-.56,.62-1.44,.67-4.49,.68-6.34,0-2.4,.08-5.15-.04-7.63-.16-3.12-1.78-7.87,.93-8.81,1.17-.41,2.06-.06,2.74,.83,.29-.54,.79-.93,1.55-1.12,2.79-.69,4.01,4.17,5.59,6.88,1.25,2.15,2.81,4.4,4.13,6.42,1.01,1.55,2.72,4.08,4.03,4.94,0,0,.81,.13,1.67-.42,.93-2.21,1.07-4.63,1.11-6.93,.04-2.25,.4-4.16,.62-6.7,.14-1.62-1.14-14.3,4.19-10.58,1.96,1.37,1.22,6.34,1.13,9.61-.07,2.48,.21,5.98,.22,7.91,.01,2.78-1.15,6.26,1.12,8.41,2.58-.25,4.19-3.15,6.66-2.48,.2,.05,.37,.12,.54,.18,.06-.84,.09-1.69,.09-2.54,0-20.71-16.79-37.49-37.49-37.49Z"/>
      <g>
        <path class="cls-3" d="M4.89,22.29c-.06,.24-.26,.67-.58,1.1-.89,1.18-2.17,1.42-3.33,.54-1.1-.83-1.35-2.25-.35-3.58,.26-.35,.57-.61,.77-.74l.61,.73c-.16,.09-.37,.24-.59,.54-.51,.67-.31,1.44,.34,1.92,.72,.54,1.48,.4,1.94-.22,.2-.27,.31-.51,.37-.74l.82,.43Z"/>
        <path class="cls-3" d="M6.85,16.87c1.27,1.2,.92,2.56,.16,3.38-.93,.99-2.24,1.11-3.32,.09-1.12-1.06-1.06-2.4-.12-3.4,.97-1.03,2.28-1.02,3.29-.07Zm-2.66,.7c-.51,.54-.11,1.28,.4,1.76,.6,.56,1.32,.77,1.77,.29,.44-.46,.17-1.18-.42-1.74-.52-.49-1.28-.81-1.75-.31Z"/>
        <path class="cls-3" d="M12.59,15.03l-1.03,.86-1.72-2.06c-.36-.43-.8-.64-1.24-.28-.28,.23-.5,.75-.05,1.29l1.75,2.1-1.03,.86-2.06-2.46c-.34-.41-.64-.74-.91-1.03l.89-.75,.45,.43,.02-.02c-.04-.41,.1-1.02,.66-1.49,.71-.59,1.63-.6,2.46,.38l1.8,2.16Z"/>
        <path class="cls-3" d="M17.18,11.97l-1.13,.73-1.46-2.25c-.3-.47-.71-.74-1.19-.43-.31,.2-.59,.68-.21,1.27l1.48,2.29-1.13,.73-1.74-2.7c-.29-.45-.54-.81-.78-1.14l.98-.63,.39,.49h.02c0-.42,.22-1.01,.84-1.41,.78-.5,1.7-.4,2.4,.68l1.53,2.37Z"/>
        <path class="cls-3" d="M21.56,9.57c-.3,.33-.79,.68-1.35,.96-1.4,.69-2.59,.28-3.22-1-.58-1.19-.33-2.58,1-3.23,1.1-.54,2.17-.18,2.82,1.16,.08,.16,.15,.32,.18,.45l-2.71,1.33c.38,.69,1.07,.7,1.72,.38,.45-.22,.76-.46,1.03-.71l.54,.67Zm-2.03-1.9c-.2-.43-.65-.87-1.24-.58-.58,.28-.55,.95-.39,1.37l1.63-.8Z"/>
        <path class="cls-3" d="M25.89,8.01c-.18,.17-.58,.42-1.08,.61-1.39,.51-2.59,.02-3.1-1.36-.47-1.29,.08-2.62,1.65-3.19,.41-.15,.81-.2,1.05-.2l.12,.95c-.19-.01-.44,0-.79,.13-.79,.29-1.04,1.04-.76,1.8,.31,.84,1.03,1.14,1.75,.87,.31-.12,.54-.26,.71-.42l.45,.81Z"/>
        <path class="cls-3" d="M25.57,2.58l1.19-.69,.31,1.15,1.08-.29,.24,.87-1.08,.29,.52,1.93c.14,.53,.39,.71,.78,.6,.18-.05,.29-.09,.41-.15l.26,.89c-.16,.11-.46,.24-.84,.34-1.4,.38-1.73-.72-1.86-1.21l-.55-2.05-.64,.17-.24-.87,.64-.17-.22-.81Z"/>
        <path class="cls-3" d="M31.54,1.23l1.26-.54,.17,1.18,1.11-.16,.13,.89-1.11,.16,.28,1.98c.08,.55,.3,.75,.7,.69,.19-.03,.29-.06,.43-.1l.15,.92c-.17,.09-.49,.18-.87,.23-1.44,.21-1.63-.92-1.7-1.43l-.3-2.1-.66,.09-.13-.89,.66-.09-.12-.83Z"/>
        <path class="cls-3" d="M39.84,3.64c.08,1.75-1.13,2.48-2.25,2.53-1.36,.06-2.38-.77-2.45-2.26-.07-1.54,.92-2.46,2.29-2.52,1.41-.06,2.35,.87,2.41,2.26Zm-2.4-1.36c-.74,.03-.97,.83-.94,1.54,.04,.82,.41,1.48,1.06,1.45,.63-.03,.95-.73,.91-1.54-.03-.72-.35-1.47-1.04-1.44Z"/>
        <path class="cls-3" d="M43.63,.75l1.35-.22-.12,1.19,1.11,.11-.09,.9-1.11-.11-.2,1.99c-.05,.55,.11,.8,.52,.84,.19,.02,.3,.01,.44,0l-.07,.93c-.19,.05-.52,.06-.9,.02-1.45-.14-1.36-1.29-1.31-1.8l.21-2.11-.66-.07,.09-.89,.66,.07,.08-.84Z"/>
        <path class="cls-3" d="M50.59,7.35l-1.32-.27,.52-2.59c.12-.57,0-1.06-.56-1.17-.33-.07-.88,.04-1.01,.71l-.55,2.73-1.32-.27,1.31-6.5,1.32,.27-.51,2.54h.02c.45-.39,1.03-.45,1.45-.37,.88,.18,1.46,.9,1.19,2.23l-.54,2.69Z"/>
        <path class="cls-3" d="M55.42,8.7c-.45,.03-1.04-.06-1.63-.26-1.48-.49-2.05-1.61-1.61-2.97,.41-1.25,1.56-2.08,2.96-1.61,1.16,.38,1.68,1.38,1.21,2.8-.06,.17-.12,.33-.19,.45l-2.87-.94c-.21,.76,.28,1.25,.97,1.47,.47,.16,.87,.2,1.23,.21l-.08,.86Zm-.13-2.78c.16-.45,.14-1.07-.49-1.28-.61-.2-1.06,.29-1.24,.71l1.72,.57Z"/>
        <path class="cls-3" d="M66.27,9.14l-3.5,3.33-1.07-.58,.4-1.79c.11-.46,.23-.89,.41-1.42h-.02c-.35,.43-.66,.78-.99,1.1l-1.33,1.28-1.07-.58,.97-4.71,1.22,.67-.59,1.97c-.14,.48-.3,.96-.46,1.42h.02c.31-.37,.69-.75,1.01-1.09l1.47-1.51,.93,.51-.48,1.99c-.13,.53-.26,1.02-.41,1.5h.02c.29-.38,.62-.77,.97-1.18l1.34-1.51,1.15,.63Z"/>
        <path class="cls-3" d="M69.55,14.42c-1.05,1.4-2.44,1.2-3.34,.53-1.09-.82-1.35-2.1-.46-3.3,.92-1.24,2.27-1.32,3.37-.5,1.13,.85,1.27,2.15,.43,3.27Zm-.99-2.57c-.6-.45-1.28,.03-1.7,.59-.49,.65-.62,1.4-.1,1.79,.51,.38,1.2,.04,1.69-.62,.43-.57,.66-1.36,.11-1.77Z"/>
        <path class="cls-3" d="M73.28,16.25c-.06-.08-.14-.16-.24-.25-.45-.41-1.04-.45-1.57,.13l-1.61,1.75-.99-.91,2.13-2.33c.38-.42,.68-.77,.94-1.08l.85,.78-.5,.63,.03,.02c.58-.28,1.18-.14,1.53,.18,.09,.09,.15,.15,.2,.22l-.79,.86Z"/>
        <path class="cls-3" d="M72.35,20.35l-.93-.97,4.79-4.58,.93,.97-4.79,4.58Z"/>
        <path class="cls-3" d="M76.93,23.8c-.36,.29-.75,.62-1,.85l-.73-.92,.47-.46-.02-.02c-.52,.08-1.08-.17-1.47-.65-.71-.89-.47-2.13,.62-3,1.23-.98,2.49-.77,3.17,.08,.37,.46,.46,.93,.34,1.29h.01s1.94-1.53,1.94-1.53l.84,1.05-4.16,3.32Zm.27-1.93c.52-.42,.5-.97,.23-1.32-.43-.54-1.15-.41-1.77,.09-.65,.52-.85,1.16-.45,1.66,.25,.31,.77,.54,1.34,.09l.66-.52Z"/>
      </g>
      <path class="cls-3" d="M7.1,86.2c.79-.94,1.82-.84,2.59-.19,.26,.22,.43,.42,.55,.59l-.75,.74c-.07-.1-.17-.21-.3-.32-.48-.4-.84,.02-1.05,.27l.68,.58-.64,.76-.67-.57-2.19,2.6-1.15-.97,2.19-2.6-.49-.42,.64-.76,.49,.41,.1-.12Z"/>
      <path class="cls-3" d="M11.3,91.21c-.07-.08-.16-.15-.28-.24-.31-.22-.7-.3-1.03-.06-.09,.06-.2,.17-.29,.3l-1.28,1.79-1.23-.88,1.73-2.42c.34-.47,.58-.84,.8-1.17l1.05,.75-.38,.63,.03,.02c.53-.33,1.08-.23,1.4,0,.12,.08,.18,.14,.24,.2l-.77,1.07Z"/>
      <path class="cls-3" d="M15.52,94.82c-.86,1.47-2.21,1.38-3.12,.85-1.16-.67-1.52-1.86-.81-3.08,.74-1.27,2.01-1.5,3.15-.83,1.19,.7,1.44,1.92,.78,3.06Zm-1.31-2.22c-.49-.29-.98,.2-1.29,.73-.37,.63-.45,1.23,0,1.49,.42,.25,.92-.14,1.27-.75,.33-.56,.47-1.21,.02-1.47Z"/>
      <g>
        <path class="cls-2" d="M36.41,94.31c-.41-.25-1.08-.61-2.04-.74-1.05-.14-1.62,.25-1.7,.78-.08,.6,.37,.97,1.74,1.77,1.79,1.03,2.44,2.21,2.25,3.55-.27,1.98-2.12,3.16-5,2.76-1.2-.16-2.35-.61-2.87-.96l.75-2.01c.59,.38,1.56,.79,2.52,.92,1.14,.16,1.76-.22,1.85-.86,.09-.66-.4-1.1-1.57-1.77-1.78-1.04-2.61-2.24-2.43-3.54,.25-1.84,1.99-3.07,4.76-2.69,1.14,.16,1.99,.5,2.53,.83l-.79,1.97Z"/>
        <path class="cls-2" d="M48.21,102.49l-2.83,.18-.86-2.5-2.77,.18-.49,2.59-2.77,.18,2.48-11.14,3.47-.22,3.78,10.74Zm-4.14-4.18l-.67-2.16c-.2-.64-.46-1.6-.66-2.26h-.03c-.11,.68-.25,1.69-.35,2.33l-.4,2.23,2.12-.14Z"/>
        <path class="cls-2" d="M55.4,94.58c1.46-.07,2.56,.66,2.91,1.89,.24,.83,.08,1.73-.45,2.49-.61,.87-1.82,1.62-4.05,2.27-1.12,.33-2.01,.51-2.62,.6l-2.99-10.32c.65-.32,1.85-.77,3.07-1.12,1.38-.4,2.45-.56,3.45-.31,.87,.22,1.53,.81,1.79,1.7,.26,.91-.02,1.96-1.13,2.78v.04Zm-2.77,.04c1.11-.32,1.59-1.05,1.37-1.82-.24-.84-.99-1.03-1.88-.77-.4,.12-.65,.22-.82,.31l.71,2.45,.61-.18Zm.71,4.75c.21-.02,.43-.08,.75-.17,1-.29,1.76-.98,1.46-2-.31-1.06-1.4-1.14-2.36-.87l-.67,.2,.82,2.85Z"/>
        <path class="cls-2" d="M70.01,93.99l-2.49,1.37-1.84-1.9-2.43,1.34,.65,2.55-2.43,1.34-2.49-11.14,3.05-1.67,7.98,8.12Zm-5.52-2.03l-1.52-1.67c-.45-.5-1.1-1.26-1.56-1.76h-.03c.19,.67,.49,1.65,.67,2.27l.58,2.19,1.86-1.02Z"/>
        <path class="cls-2" d="M77.61,87.67l-5.19,4.46-7.13-8.31,5.02-4.31,1.36,1.58-2.93,2.52,1.43,1.67,2.78-2.39,1.33,1.55-2.78,2.39,1.66,1.93,3.11-2.67,1.36,1.58Z"/>
      </g>
    </g>
  </g>
</svg>