<?xml version="1.0" encoding="UTF-8"?>
<svg id="Layer_2" data-name="Layer 2" xmlns="http://www.w3.org/2000/svg" viewBox="0 0 149.65 45.91">
  <defs>
    <style>
      .cls-1 {
        fill: #00965a;
      }
    </style>
  </defs>
  <g id="_レイヤー_1" data-name="レイヤー 1">
    <g>
      <g>
        <path class="cls-1" d="M14.36,12.72v2.11h-5.97v1.58c0,1.79-.62,2.39-4.31,2.39-.14-.65-.57-1.63-.92-2.23,.89,.05,2.14,.05,2.46,.05s.41-.06,.41-.29v-1.5H.09v-2.11H6.03v-.95l1.03,.05c.25-.21,.49-.43,.73-.65H3.02v-1.98h6.78l.36-.11,1.74,1.03c-.08,.13-.24,.21-.41,.25-.66,.71-1.57,1.62-2.57,2.36h5.43ZM2.48,8.23v2.04H.33V6.2h1.9c-.27-.49-.63-1.01-.97-1.44l1.96-.87c.57,.63,1.22,1.5,1.49,2.14l-.38,.17h1.79c-.24-.57-.59-1.25-.92-1.79l2.04-.76c.51,.71,1.06,1.66,1.27,2.34l-.54,.21h1.74c.48-.73,.97-1.63,1.27-2.34l2.68,.93c-.09,.16-.3,.21-.51,.19-.22,.38-.52,.81-.85,1.22h1.93v4.07h-2.27v-2.04H2.48Z"/>
        <path class="cls-1" d="M24.27,16.11h6.02v2.25H15.88v-2.25h5.99v-2.68h-4.1v-2.22h4.1v-2.41h-3.06c-.44,.93-.95,1.81-1.49,2.49-.46-.43-1.39-1.09-1.96-1.44,1.14-1.35,2.14-3.79,2.66-6.03l2.8,.76c-.06,.14-.22,.24-.48,.22-.17,.59-.36,1.17-.59,1.76h2.11V3.73l2.9,.16c-.02,.17-.16,.29-.49,.35v2.33h5.23v2.25h-5.23v2.41h4.55v2.22h-4.55v2.68Z"/>
        <path class="cls-1" d="M32.01,4.39h13.76v14.38h-2.41v-.62h-9.06v.62h-2.3V4.39Zm2.3,11.56h9.06V6.59h-9.06V15.95Zm8.66-7.51v1.93h-1.54v3.28c0,1.63-.52,2.14-3.36,2.09-.08-.55-.33-1.36-.59-1.92,.57,.03,1.31,.03,1.54,.03,.21,0,.29-.06,.29-.25v-3.23h-4.55v-1.93h4.55v-1.55l2.57,.1c-.02,.17-.13,.28-.44,.33v1.12h1.54Zm-6.18,5.42c-.24-.7-.9-1.74-1.54-2.5l1.57-.87c.67,.73,1.38,1.71,1.66,2.42l-1.69,.95Z"/>
        <path class="cls-1" d="M62.06,9.25h-3.06c.86,2.01,2.19,4.02,3.56,5.27-.54,.41-1.3,1.2-1.68,1.79-.4-.43-.76-.92-1.12-1.46v1.28h-1.88v2.64h-2.25v-2.64h-1.79v-1.39c-.41,.6-.86,1.16-1.31,1.62-.27-.38-.74-.92-1.17-1.33v3.75h-2.23v-7.67c-.36,.49-.73,.97-1.11,1.38-.21-.57-.76-1.79-1.06-2.36,1.31-1.39,2.68-3.93,3.48-6.37l2.52,.87c-.09,.16-.27,.22-.49,.21-.38,.97-.82,1.96-1.31,2.91l.67,.17c-.03,.16-.17,.29-.46,.32v5.96c1.3-1.25,2.44-3.09,3.22-4.96h-2.71v-2.19h3.77V3.95l2.71,.14c-.02,.17-.14,.28-.46,.33v2.64h4.18v2.19Zm-6.43,2.14c-.41,.97-.87,1.88-1.36,2.71h1.36v-2.71Zm2.25,2.71h1.41c-.52-.89-1-1.87-1.41-2.88v2.88Z"/>
      </g>
      <g>
        <path class="cls-1" d="M37.25,22.83h4.8l3.93,10.1,4.23-10.1h2.93l4.15,9.99,3.93-9.99h4.83l-7.13,17.76h-3.11l-4.17-10.12-4.29,10.12h-3.07l-7.04-17.76Z"/>
        <path class="cls-1" d="M70.73,15.52c.86,0,1.6,.28,2.21,.85,.61,.57,.92,1.25,.92,2.06s-.3,1.47-.91,2.03c-.61,.56-1.34,.84-2.18,.84s-1.61-.29-2.23-.86c-.61-.57-.92-1.27-.92-2.08s.3-1.45,.91-2.01c.61-.56,1.34-.83,2.2-.83Zm-2.45,7.31h4.9v17.76h-4.9V22.83Z"/>
        <path class="cls-1" d="M78.23,16.28h4.9v6.55h2.91v3.84h-2.91v13.92h-4.9v-13.92h-2.51v-3.84h2.51v-6.55Z"/>
        <path class="cls-1" d="M88.68,15.97h4.87v8.65c.96-.75,1.92-1.31,2.89-1.69,.97-.37,1.95-.56,2.94-.56,1.94,0,3.57,.61,4.9,1.83,1.14,1.06,1.71,2.61,1.71,4.65v11.74h-4.83v-7.79c0-2.06-.11-3.45-.32-4.18-.22-.73-.58-1.27-1.1-1.63-.52-.36-1.16-.54-1.93-.54-.99,0-1.85,.3-2.56,.9-.71,.6-1.21,1.41-1.48,2.45-.14,.53-.22,1.75-.22,3.66v7.13h-4.87V15.97Z"/>
      </g>
      <polygon class="cls-1" points="149.65 31.69 148 0 118.17 9.75 119.87 14.93 138.69 8.78 117.17 40.39 .02 40.46 0 45.91 0 45.91 120.05 45.84 143.16 11.9 144.21 31.97 149.65 31.69"/>
    </g>
  </g>
</svg>