<?xml version="1.0" standalone="no"?>
<!DOCTYPE svg PUBLIC "-//W3C//DTD SVG 20010904//EN"
 "http://www.w3.org/TR/2001/REC-SVG-20010904/DTD/svg10.dtd">
<svg version="1.0" xmlns="http://www.w3.org/2000/svg"
 width="600.000000pt" height="600.000000pt" viewBox="0 0 600.000000 600.000000"
 preserveAspectRatio="xMidYMid meet">
<metadata>
Created by potrace 1.14, written by Peter Selinger 2001-2017
</metadata>
<g transform="translate(0.000000,600.000000) scale(0.100000,-0.100000)"
fill="#000000" stroke="none">
<path d="M2820 5977 c-3 -3 -45 -7 -95 -11 -49 -3 -99 -7 -110 -9 -11 -3 -42
-8 -68 -11 -27 -4 -59 -9 -70 -12 -12 -2 -35 -7 -52 -9 -16 -3 -37 -8 -45 -10
-8 -2 -26 -6 -40 -9 -14 -2 -45 -9 -70 -16 -25 -7 -49 -13 -55 -14 -62 -14
-276 -87 -385 -132 -70 -30 -353 -174 -384 -197 -39 -28 -88 -57 -96 -57 -6 0
-10 -4 -10 -8 0 -5 -12 -15 -27 -23 -15 -8 -68 -45 -119 -84 -215 -164 -414
-361 -565 -559 -38 -50 -73 -95 -77 -101 -33 -42 -135 -207 -188 -303 -125
-229 -231 -510 -289 -768 -28 -125 -29 -131 -40 -205 -3 -26 -8 -56 -10 -68
-27 -141 -27 -629 0 -781 3 -14 7 -43 10 -65 5 -40 6 -49 25 -140 6 -27 12
-59 14 -70 29 -147 115 -401 196 -580 18 -38 33 -72 33 -75 0 -3 13 -27 29
-53 15 -26 28 -50 28 -52 0 -15 199 -327 242 -380 9 -11 41 -49 70 -85 88
-108 99 -120 214 -235 150 -149 267 -247 414 -346 36 -24 66 -47 68 -51 2 -5
7 -8 12 -8 5 0 44 -22 88 -49 83 -52 337 -178 372 -185 3 -1 12 -6 20 -11 16
-10 160 -63 195 -72 11 -2 29 -9 40 -13 16 -8 69 -23 120 -36 111 -28 227 -54
232 -52 5 0 16 -2 26 -7 26 -11 31 0 9 21 -37 36 -151 183 -207 268 -58 89
-124 221 -145 293 l-13 42 -36 -29 c-46 -37 -104 -68 -138 -76 -120 -27 -203
7 -217 90 -3 16 -7 30 -9 33 -11 10 28 105 77 188 96 160 104 249 41 445 -21
63 -39 134 -40 158 -3 51 13 122 32 140 7 7 13 17 13 21 0 14 72 80 105 95 40
19 96 26 250 31 156 5 219 18 231 50 12 30 11 100 -2 148 -25 98 -59 154 -206
338 -37 48 -68 91 -68 97 0 6 -4 12 -8 14 -5 2 -55 82 -112 178 -140 237 -200
330 -300 468 -104 143 -190 268 -190 276 0 4 -11 23 -23 44 -56 88 -79 199
-57 270 16 47 68 117 98 131 69 33 151 -3 266 -115 64 -62 167 -204 289 -399
45 -71 86 -135 92 -142 5 -6 21 -26 35 -44 14 -18 75 -94 136 -168 95 -116
170 -217 209 -280 29 -45 159 -202 201 -241 87 -81 127 -108 154 -103 41 7 44
8 77 26 27 15 33 25 47 87 26 113 31 211 31 640 0 366 -4 495 -20 585 -54 317
-34 461 71 516 77 39 168 26 221 -30 l21 -22 20 26 c18 23 124 79 133 70 2 -2
18 -5 35 -8 17 -3 44 -12 61 -20 37 -20 107 -99 134 -152 11 -22 24 -47 29
-55 6 -8 43 -85 84 -170 82 -169 94 -191 188 -336 36 -55 73 -114 83 -131 11
-18 23 -33 27 -33 4 0 8 -4 8 -9 0 -12 61 -105 72 -109 4 -2 8 -8 8 -13 0 -4
28 -49 63 -100 34 -50 67 -98 72 -107 6 -8 17 -23 25 -32 8 -10 26 -32 40 -51
42 -55 118 -129 144 -139 25 -9 71 -1 113 21 21 11 54 89 67 159 3 14 7 35 10
46 15 70 26 184 31 339 5 130 11 224 20 289 24 176 27 219 30 521 2 160 6 301
9 315 3 14 8 44 11 66 7 62 40 161 67 200 22 32 93 78 108 69 3 -2 19 -6 34
-9 39 -7 106 -44 129 -69 63 -73 81 -161 78 -392 -4 -244 -4 -689 0 -915 1
-102 -1 -223 -6 -270 -19 -196 -10 -298 35 -385 24 -46 38 -64 62 -83 27 -22
124 17 247 98 133 88 213 111 308 87 l32 -8 -4 233 c-3 228 -8 298 -20 318 -3
6 -1 10 5 10 7 0 8 6 1 18 -5 9 -11 40 -15 68 -3 29 -7 62 -10 75 -6 24 -12
58 -22 114 -5 25 -30 121 -64 240 -62 219 -218 556 -341 737 -21 32 -39 62
-39 67 0 5 -4 11 -8 13 -5 2 -23 25 -42 53 -19 27 -40 56 -46 65 -266 335
-529 569 -879 780 -83 50 -325 168 -410 200 -33 12 -69 26 -80 30 -21 8 -50
18 -63 21 -4 1 -32 10 -62 21 -52 18 -66 22 -107 32 -10 2 -47 12 -83 21 -36
9 -74 19 -85 20 -11 2 -49 9 -85 16 -88 16 -107 19 -165 24 -27 3 -61 8 -75
11 -30 7 -474 17 -480 11z"/>
<path d="M3534 3452 c2 -4 8 -35 11 -67 4 -33 12 -68 17 -79 8 -14 7 -17 -3
-11 -8 6 -10 4 -4 -5 8 -12 11 -28 20 -90 1 -14 4 -25 5 -25 1 0 3 -13 5 -30
1 -16 5 -48 9 -70 5 -36 8 -62 21 -190 5 -55 14 -131 21 -185 3 -25 7 -61 9
-80 11 -97 14 -120 42 -270 19 -107 103 -357 169 -505 10 -22 18 -42 19 -45 0
-3 3 -9 7 -15 35 -57 170 -448 182 -529 4 -21 8 -41 10 -45 2 -3 7 -31 11 -61
4 -30 8 -57 10 -60 2 -3 7 -37 10 -75 4 -39 9 -73 11 -76 2 -4 6 -24 9 -45 16
-104 53 -259 75 -309 9 -22 23 -57 25 -65 3 -13 47 -127 55 -145 6 -11 16 -37
23 -57 l12 -38 60 31 c33 17 81 44 108 60 26 16 52 29 57 29 6 0 10 3 10 8 0
4 16 16 34 26 40 22 41 12 -5 198 -28 112 -34 133 -65 205 -8 17 -14 33 -14
36 0 6 -86 195 -100 219 -6 10 -10 25 -10 33 0 8 -3 15 -8 15 -4 0 -12 15 -18
33 -7 17 -31 84 -54 147 -23 63 -41 116 -41 118 1 1 1 3 0 5 0 1 -2 9 -4 17
-4 21 -28 132 -32 150 -2 8 -5 24 -7 35 -2 11 -6 34 -10 50 -3 17 -19 102 -36
190 -41 214 -39 205 -52 250 -6 22 -11 45 -13 50 -1 6 -4 17 -7 25 -55 169
-54 165 -99 270 -13 30 -80 168 -149 305 -69 138 -138 279 -154 315 -96 217
-164 360 -171 360 -4 0 -4 -4 -1 -8z"/>
</g>
</svg>
